<svg width="100" height="100" xmlns="http://www.w3.org/2000/svg">
  <defs>
    <pattern id="horse-pattern" patternUnits="userSpaceOnUse" width="100" height="100">
      <rect width="100" height="100" fill="#0f2a28"/>
      <path d="M15,15 Q25,5 35,15 T55,15" stroke="#22c7b8" stroke-width="0.5" fill="none" opacity="0.1"/>
      <path d="M75,25 Q85,15 95,25 T115,25" stroke="#22c7b8" stroke-width="0.5" fill="none" opacity="0.1"/>
      <path d="M15,55 Q25,45 35,55 T55,55" stroke="#22c7b8" stroke-width="0.5" fill="none" opacity="0.1"/>
      <path d="M75,65 Q85,55 95,65 T115,65" stroke="#22c7b8" stroke-width="0.5" fill="none" opacity="0.1"/>
      <path d="M35,35 L40,40 L35,45 L30,40 Z" fill="#e9d18c" opacity="0.05"/>
      <path d="M65,75 L70,80 L65,85 L60,80 Z" fill="#e9d18c" opacity="0.05"/>
      <circle cx="25" cy="75" r="1" fill="#e9d18c" opacity="0.1"/>
      <circle cx="75" cy="25" r="1" fill="#e9d18c" opacity="0.1"/>
      <circle cx="50" cy="50" r="0.5" fill="#e9d18c" opacity="0.1"/>
    </pattern>
  </defs>
  <rect width="100" height="100" fill="url(#horse-pattern)"/>
</svg>